<svg width="494" height="75" viewBox="0 0 494 75" fill="none" xmlns="http://www.w3.org/2000/svg">
<path d="M29.393 19.624C30.097 19.624 30.929 19.656 31.889 19.72C32.849 19.784 33.617 19.88 34.193 20.008L33.137 33.448C32.689 33.32 32.017 33.224 31.121 33.16C30.289 33.032 29.553 32.968 28.913 32.968C27.057 32.968 25.265 33.224 23.537 33.736C21.809 34.184 20.241 34.92 18.833 35.944C17.489 36.968 16.401 38.344 15.569 40.072C14.801 41.736 14.417 43.816 14.417 46.312V73H0.113V20.584H10.961L13.073 29.416H13.745C14.769 27.624 16.049 25.992 17.585 24.52C19.121 23.048 20.881 21.864 22.865 20.968C24.913 20.072 27.089 19.624 29.393 19.624ZM63.4318 19.624C68.2958 19.624 72.4558 20.552 75.9118 22.408C79.4318 24.264 82.1518 26.952 84.0718 30.472C85.9918 33.992 86.9518 38.312 86.9518 43.432V50.344H53.1598C53.2878 54.376 54.4718 57.544 56.7118 59.848C59.0158 62.152 62.1838 63.304 66.2158 63.304C69.6078 63.304 72.6798 62.984 75.4318 62.344C78.1838 61.64 81.0318 60.584 83.9758 59.176V70.216C81.4158 71.496 78.6958 72.424 75.8158 73C72.9998 73.64 69.5758 73.96 65.5438 73.96C60.2958 73.96 55.6558 73 51.6238 71.08C47.5918 69.096 44.4238 66.12 42.1198 62.152C39.8158 58.184 38.6638 53.192 38.6638 47.176C38.6638 41.032 39.6878 35.944 41.7358 31.912C43.8478 27.816 46.7598 24.744 50.4718 22.696C54.1838 20.648 58.5038 19.624 63.4318 19.624ZM63.5278 29.8C60.7758 29.8 58.4718 30.696 56.6158 32.488C54.8238 34.28 53.7678 37.064 53.4478 40.84H73.5118C73.5118 38.728 73.1278 36.84 72.3598 35.176C71.6558 33.512 70.5678 32.2 69.0958 31.24C67.6238 30.28 65.7678 29.8 63.5278 29.8ZM120.055 19.528C127.095 19.528 132.471 21.064 136.183 24.136C139.959 27.144 141.847 31.784 141.847 38.056V73H131.863L129.079 65.896H128.695C127.223 67.752 125.687 69.288 124.087 70.504C122.551 71.72 120.759 72.584 118.711 73.096C116.727 73.672 114.263 73.96 111.319 73.96C108.247 73.96 105.463 73.384 102.967 72.232C100.535 71.016 98.6145 69.192 97.2065 66.76C95.7985 64.264 95.0945 61.128 95.0945 57.352C95.0945 51.784 97.0465 47.688 100.951 45.064C104.855 42.376 110.711 40.904 118.519 40.648L127.639 40.36V38.056C127.639 35.304 126.903 33.288 125.431 32.008C124.023 30.728 122.039 30.088 119.479 30.088C116.919 30.088 114.423 30.472 111.991 31.24C109.559 31.944 107.127 32.84 104.695 33.928L99.9905 24.232C102.807 22.76 105.911 21.608 109.303 20.776C112.759 19.944 116.343 19.528 120.055 19.528ZM122.071 48.904C117.463 49.032 114.263 49.864 112.471 51.4C110.679 52.936 109.783 54.952 109.783 57.448C109.783 59.624 110.423 61.192 111.703 62.152C112.983 63.048 114.647 63.496 116.695 63.496C119.767 63.496 122.359 62.6 124.471 60.808C126.583 58.952 127.639 56.36 127.639 53.032V48.712L122.071 48.904ZM177.8 73.96C172.616 73.96 168.2 73.032 164.552 71.176C160.904 69.256 158.12 66.312 156.2 62.344C154.28 58.376 153.32 53.288 153.32 47.08C153.32 40.68 154.408 35.464 156.584 31.432C158.76 27.4 161.768 24.424 165.608 22.504C169.512 20.584 173.992 19.624 179.048 19.624C182.632 19.624 185.736 19.976 188.36 20.68C191.048 21.384 193.384 22.216 195.368 23.176L191.144 34.216C188.904 33.32 186.792 32.584 184.808 32.008C182.888 31.432 180.968 31.144 179.048 31.144C176.552 31.144 174.472 31.752 172.808 32.968C171.144 34.12 169.896 35.88 169.064 38.248C168.296 40.552 167.912 43.464 167.912 46.984C167.912 50.44 168.328 53.32 169.16 55.624C170.056 57.864 171.336 59.56 173 60.712C174.664 61.8 176.68 62.344 179.048 62.344C182.056 62.344 184.712 61.96 187.016 61.192C189.32 60.36 191.56 59.24 193.736 57.832V70.024C191.56 71.432 189.256 72.424 186.824 73C184.456 73.64 181.448 73.96 177.8 73.96ZM220.105 14.92C220.105 17.48 220.009 19.944 219.817 22.312C219.689 24.68 219.561 26.344 219.433 27.304H220.201C221.353 25.512 222.697 24.072 224.233 22.984C225.769 21.832 227.465 21 229.321 20.488C231.241 19.912 233.257 19.624 235.369 19.624C239.145 19.624 242.441 20.296 245.257 21.64C248.073 22.984 250.249 25.064 251.785 27.88C253.385 30.696 254.185 34.344 254.185 38.824V73H239.881V42.376C239.881 38.6 239.177 35.784 237.769 33.928C236.425 32.008 234.313 31.048 231.433 31.048C228.553 31.048 226.281 31.72 224.617 33.064C223.017 34.408 221.865 36.36 221.161 38.92C220.457 41.48 220.105 44.616 220.105 48.328V73H205.801V0.0399952H220.105V14.92ZM290.494 19.624C295.358 19.624 299.518 20.552 302.974 22.408C306.494 24.264 309.214 26.952 311.134 30.472C313.054 33.992 314.014 38.312 314.014 43.432V50.344H280.222C280.35 54.376 281.534 57.544 283.774 59.848C286.078 62.152 289.246 63.304 293.278 63.304C296.67 63.304 299.742 62.984 302.494 62.344C305.246 61.64 308.094 60.584 311.038 59.176V70.216C308.478 71.496 305.758 72.424 302.878 73C300.062 73.64 296.638 73.96 292.606 73.96C287.358 73.96 282.718 73 278.686 71.08C274.654 69.096 271.486 66.12 269.182 62.152C266.878 58.184 265.726 53.192 265.726 47.176C265.726 41.032 266.75 35.944 268.798 31.912C270.91 27.816 273.822 24.744 277.534 22.696C281.246 20.648 285.566 19.624 290.494 19.624ZM290.59 29.8C287.838 29.8 285.534 30.696 283.678 32.488C281.886 34.28 280.83 37.064 280.51 40.84H300.574C300.574 38.728 300.19 36.84 299.422 35.176C298.718 33.512 297.63 32.2 296.158 31.24C294.686 30.28 292.83 29.8 290.59 29.8ZM342.221 73.96C336.397 73.96 331.629 71.688 327.917 67.144C324.269 62.536 322.445 55.784 322.445 46.888C322.445 37.928 324.301 31.144 328.013 26.536C331.725 21.928 336.589 19.624 342.605 19.624C345.101 19.624 347.309 19.976 349.229 20.68C351.149 21.32 352.781 22.216 354.125 23.368C355.533 24.52 356.717 25.832 357.677 27.304H358.157C357.965 26.28 357.741 24.808 357.485 22.888C357.229 20.904 357.101 18.888 357.101 16.84V0.0399952H371.405V73H360.461L357.677 66.184H357.101C356.205 67.592 355.053 68.904 353.645 70.12C352.301 71.272 350.701 72.2 348.845 72.904C346.989 73.608 344.781 73.96 342.221 73.96ZM347.213 62.536C351.181 62.536 353.965 61.384 355.565 59.08C357.165 56.712 357.997 53.192 358.061 48.52V46.984C358.061 41.864 357.261 37.96 355.661 35.272C354.125 32.584 351.245 31.24 347.021 31.24C343.885 31.24 341.421 32.616 339.629 35.368C337.837 38.056 336.941 41.96 336.941 47.08C336.941 52.2 337.837 56.072 339.629 58.696C341.421 61.256 343.949 62.536 347.213 62.536Z" fill="#057AFF"/>
<path d="M394.331 54.376L384.347 64.36L394.331 74.536L404.315 64.552L394.331 54.376ZM429.823 20.584V73H415.519V20.584H429.823ZM422.719 0.0399952C424.831 0.0399952 426.655 0.551996 428.191 1.576C429.727 2.536 430.495 4.36 430.495 7.048C430.495 9.672 429.727 11.496 428.191 12.52C426.655 13.544 424.831 14.056 422.719 14.056C420.543 14.056 418.687 13.544 417.151 12.52C415.679 11.496 414.943 9.672 414.943 7.048C414.943 4.36 415.679 2.536 417.151 1.576C418.687 0.551996 420.543 0.0399952 422.719 0.0399952ZM474.529 19.624C480.161 19.624 484.673 21.16 488.065 24.232C491.457 27.24 493.153 32.104 493.153 38.824V73H478.849V42.376C478.849 38.6 478.177 35.784 476.833 33.928C475.489 32.008 473.345 31.048 470.401 31.048C466.049 31.048 463.073 32.552 461.473 35.56C459.873 38.504 459.073 42.76 459.073 48.328V73H444.769V20.584H455.713L457.633 27.304H458.401C459.553 25.512 460.961 24.072 462.625 22.984C464.289 21.832 466.145 21 468.193 20.488C470.241 19.912 472.353 19.624 474.529 19.624Z" fill="#021431"/>
</svg>
